<svg xmlns="http://www.w3.org/2000/svg" version="1.1" xmlns:xlink="http://www.w3.org/1999/xlink" width="512" height="512" x="0" y="0" viewBox="0 0 512 512" style="enable-background:new 0 0 512 512" xml:space="preserve" class="">
	<g>
		<path d="M279.006 77.848h42.792v92.599h-42.792z" style="" fill="#ea9b58" data-original="#ea9b58">
		</path>
		<path d="M279.006 77.848h42.792v92.599h-42.792z" style="stroke-width:15;stroke-linecap:round;stroke-linejoin:round;stroke-miterlimit:10;" fill="none" stroke="#000000" stroke-width="15" stroke-linecap="round" stroke-linejoin="round" stroke-miterlimit="10" data-original="#000000">
		</path>
		<path d="M284.628 170.447c-7.12-34.612-37.759-60.64-74.478-60.64s-67.358 26.027-74.478 60.64h148.956z" style="" fill="#fe860a" data-original="#fe860a">
		</path>
		<path d="M226.835 111.645a76.32 76.32 0 0 0-16.686-1.837c-36.719 0-67.358 26.027-74.478 60.64h33.372c6.009-29.21 28.766-52.304 57.792-58.803z" style="" fill="#fe7701" data-original="#fe7701">
		</path>
		<path d="M284.628 170.447c-7.12-34.612-37.759-60.64-74.478-60.64s-67.358 26.027-74.478 60.64h148.956z" style="stroke-width:15;stroke-linecap:round;stroke-linejoin:round;stroke-miterlimit:10;" fill="none" stroke="#000000" stroke-width="15" stroke-linecap="round" stroke-linejoin="round" stroke-miterlimit="10" data-original="#000000">
		</path>
		<path d="M134.161 47.975a7.093 7.093 0 0 1-7.093 7.093h-15.005c12.711 4.035 23.644 12.15 31.264 22.78h46.874l39.018-39.018a12.888 12.888 0 0 1 9.113-3.775H134.161v12.92z" style="" fill="#ea9b58" data-original="#ea9b58">
		</path>
		<path d="M134.161 47.975a7.093 7.093 0 0 1-7.093 7.093h-15.005c12.711 4.035 23.644 12.15 31.264 22.78h46.874l39.018-39.018a12.888 12.888 0 0 1 9.113-3.775H134.161v12.92z" style="stroke-width:15;stroke-linecap:round;stroke-linejoin:round;stroke-miterlimit:10;" fill="none" stroke="#000000" stroke-width="15" stroke-linecap="round" stroke-linejoin="round" stroke-miterlimit="10" data-original="#000000">
		</path>
		<path d="M154.73 170.447v-57.22c0-27.167-18.003-50.33-42.666-58.159h-36.66c-24.663 7.83-42.666 30.992-42.666 58.159v57.22H154.73z" style="" fill="#00f2a6" data-original="#00f2a6">
		</path>
		<path d="M114.865 56.042a60.556 60.556 0 0 0-2.802-.975h-36.66c-24.663 7.83-42.666 30.992-42.666 58.159v57.22H75v-57.22c0-26.125 16.653-48.54 39.865-57.184z" style="" fill="#0ed290" data-original="#0ed290">
		</path>
		<path d="M154.73 170.447v-57.22c0-27.167-18.003-50.33-42.666-58.159h-36.66c-24.663 7.83-42.666 30.992-42.666 58.159v57.22H154.73z" style="stroke-width:15;stroke-linecap:round;stroke-linejoin:round;stroke-miterlimit:10;" fill="none" stroke="#000000" stroke-width="15" stroke-linecap="round" stroke-linejoin="round" stroke-miterlimit="10" data-original="#000000">
		</path>
		<path d="M32.737 127.898H154.73v42.55H32.737z" style="" fill="#ffffff" data-original="#ffffff">
		</path>
		<path d="M32.737 127.898H75v42.55H32.737z" style="" fill="#eef5f6" data-original="#eef5f6">
		</path>
		<path d="M32.737 127.898H154.73v42.55H32.737z" style="stroke-width:15;stroke-linecap:round;stroke-linejoin:round;stroke-miterlimit:10;" fill="none" stroke="#000000" stroke-width="15" stroke-linecap="round" stroke-linejoin="round" stroke-miterlimit="10" data-original="#000000">
		</path>
		<path d="M127.068 55.068h-66.67a7.093 7.093 0 0 1-7.093-7.093V23.86a7.093 7.093 0 0 1 7.093-7.093h66.671a7.093 7.093 0 0 1 7.093 7.093v24.115a7.094 7.094 0 0 1-7.094 7.093z" style="" fill="#eef5f6" data-original="#eef5f6">
		</path>
		<path d="M87.144 47.975V23.86a7.093 7.093 0 0 1 7.093-7.093H60.398a7.093 7.093 0 0 0-7.093 7.093v24.115a7.093 7.093 0 0 0 7.093 7.093h33.839a7.093 7.093 0 0 1-7.093-7.093z" style="" fill="#deecf1" data-original="#deecf1">
		</path>
		<path d="M127.068 55.068h-66.67a7.093 7.093 0 0 1-7.093-7.093V23.86a7.093 7.093 0 0 1 7.093-7.093h66.671a7.093 7.093 0 0 1 7.093 7.093v24.115a7.094 7.094 0 0 1-7.094 7.093z" style="stroke-width:15;stroke-linecap:round;stroke-linejoin:round;stroke-miterlimit:10;" fill="none" stroke="#000000" stroke-width="15" stroke-linecap="round" stroke-linejoin="round" stroke-miterlimit="10" data-original="#000000">
		</path>
		<path d="M409.207 170.447c-7.12-34.612-37.759-60.64-74.479-60.64-36.719 0-67.358 26.027-74.478 60.64h148.957z" style="" fill="#fe646f" data-original="#fe646f">
		</path>
		<path d="M351.625 111.696a76.291 76.291 0 0 0-16.896-1.888c-36.719 0-67.358 26.027-74.478 60.64h33.793c5.993-29.139 28.656-52.188 57.581-58.752z" style="" fill="#fd4755" data-original="#fd4755">
		</path>
		<path d="M409.207 170.447c-7.12-34.612-37.759-60.64-74.479-60.64-36.719 0-67.358 26.027-74.478 60.64h148.957z" style="stroke-width:15;stroke-linecap:round;stroke-linejoin:round;stroke-miterlimit:10;" fill="none" stroke="#000000" stroke-width="15" stroke-linecap="round" stroke-linejoin="round" stroke-miterlimit="10" data-original="#000000">
		</path>
		<path d="M481 170.447V157c0-8.284-6.716-15-15-15H357.77c-8.284 0-15 6.716-15 15v13.447H481z" style="" fill="#ffe177" data-original="#ffe177">
		</path>
		<path d="M481 170.447V157c0-8.284-6.716-15-15-15H357.77c-8.284 0-15 6.716-15 15v13.447H481z" style="stroke-width:15;stroke-linecap:round;stroke-linejoin:round;stroke-miterlimit:10;" fill="none" stroke="#000000" stroke-width="15" stroke-linecap="round" stroke-linejoin="round" stroke-miterlimit="10" data-original="#000000">
		</path>
		<path d="M7.5 175.447v309.785c0 5.523 4.477 10 10 10h97.773V170.447H12.5a5 5 0 0 0-5 5z" style="" fill="#ffbd86" data-original="#ffbd86" class="">
		</path>
		<path d="M41.227 456.513V175.447a5 5 0 0 1 5-5H12.5a5 5 0 0 0-5 5v309.785a9.955 9.955 0 0 0 2.736 6.859l30.991-35.578z" style="" fill="#f6a96c" data-original="#f6a96c" class="">
		</path>
		<path d="M7.5 175.447v309.785c0 5.523 4.477 10 10 10h97.773V170.447H12.5a5 5 0 0 0-5 5z" style="stroke-width:15;stroke-linecap:round;stroke-linejoin:round;stroke-miterlimit:10;" fill="none" stroke="#000000" stroke-width="15" stroke-linecap="round" stroke-linejoin="round" stroke-miterlimit="10" data-original="#000000">
		</path>
		<path d="M494.5 495.232H115.273V170.447H499.5a5 5 0 0 1 5 5v309.785c0 5.523-4.477 10-10 10z" style="" fill="#ffeee6" data-original="#ffeee6" class="">
		</path>
		<path d="M115.273 170.447h42.5v324.785h-42.5z" style="" fill="#ffdfcf" data-original="#ffdfcf" class="">
		</path>
		<path d="M494.5 495.232H115.273V170.447H499.5a5 5 0 0 1 5 5v309.785c0 5.523-4.477 10-10 10z" style="stroke-width:15;stroke-linecap:round;stroke-linejoin:round;stroke-miterlimit:10;" fill="none" stroke="#000000" stroke-width="15" stroke-linecap="round" stroke-linejoin="round" stroke-miterlimit="10" data-original="#000000">
		</path>
		<path d="M115.273 495.232H494.5c5.523 0 10-4.477 10-10V442.39H115.273v52.842z" style="" fill="#fed2a4" data-original="#fed2a4">
		</path>
		<path d="M115.273 442.39h42.5v52.842h-42.5z" style="" fill="#ffbd86" data-original="#ffbd86" class="">
		</path>
		<path d="M393 442.39H115.273v52.842H494.5c5.523 0 10-4.477 10-10V442.39H428" style="stroke-width:15;stroke-linecap:round;stroke-linejoin:round;stroke-miterlimit:10;" fill="none" stroke="#000000" stroke-width="15" stroke-linecap="round" stroke-linejoin="round" stroke-miterlimit="10" data-original="#000000">
		</path>
		<path d="M232.994 213V77.848h-42.792V213a5 5 0 0 0 5 5h32.792a5 5 0 0 0 5-5z" style="" fill="#fed2a4" data-original="#fed2a4">
		</path>
		<path d="M207 213V77.848h-16.798V213a5 5 0 0 0 5 5H212a5 5 0 0 1-5-5z" style="" fill="#ffbd86" data-original="#ffbd86" class="">
		</path>
		<path d="M232.994 213V77.848h-42.792V213a5 5 0 0 0 5 5h32.792a5 5 0 0 0 5-5z" style="stroke-width:15;stroke-linecap:round;stroke-linejoin:round;stroke-miterlimit:10;" fill="none" stroke="#000000" stroke-width="15" stroke-linecap="round" stroke-linejoin="round" stroke-miterlimit="10" data-original="#000000">
		</path>
		<path d="M429.572 213V77.848H386.78V213a5 5 0 0 0 5 5h32.792a5 5 0 0 0 5-5z" style="" fill="#fed2a4" data-original="#fed2a4">
		</path>
		<path d="M403.208 213V77.848H386.78V213a5 5 0 0 0 5 5h16.428a5 5 0 0 1-5-5z" style="" fill="#ffbd86" data-original="#ffbd86" class="">
		</path>
		<path d="M429.572 96V77.848H386.78V213a5 5 0 0 0 5 5h32.792a5 5 0 0 0 5-5v-82" style="stroke-width:15;stroke-linecap:round;stroke-linejoin:round;stroke-miterlimit:10;" fill="none" stroke="#000000" stroke-width="15" stroke-linecap="round" stroke-linejoin="round" stroke-miterlimit="10" data-original="#000000">
		</path>
		<path d="m190.202 77.848 39.017-39.017a12.888 12.888 0 0 1 9.113-3.775H381.44c3.418 0 6.696 1.358 9.113 3.775l39.017 39.017H190.202z" style="" fill="#ffbd86" data-original="#ffbd86" class="">
		</path>
		<path d="m190.202 77.848 39.017-39.017a12.888 12.888 0 0 1 9.113-3.775H381.44c3.418 0 6.696 1.358 9.113 3.775l39.017 39.017H190.202z" style="stroke-width:15;stroke-linecap:round;stroke-linejoin:round;stroke-miterlimit:10;" fill="none" stroke="#000000" stroke-width="15" stroke-linecap="round" stroke-linejoin="round" stroke-miterlimit="10" data-original="#000000">
		</path>
		<circle cx="309.887" cy="317" r="75" style="" fill="#00f2a6" data-original="#00f2a6">
		</circle>
		<path d="M283 317c0-33.003 21.327-61.007 50.943-71.035A74.856 74.856 0 0 0 309.886 242c-41.421 0-75 33.579-75 75s33.579 75 75 75a74.86 74.86 0 0 0 24.057-3.965C304.327 378.007 283 350.003 283 317z" style="" fill="#0ed290" data-original="#0ed290">
		</path>
		<circle cx="309.887" cy="317" r="75" style="stroke-width:15;stroke-linecap:round;stroke-linejoin:round;stroke-miterlimit:10;" fill="none" stroke="#000000" stroke-width="15" stroke-linecap="round" stroke-linejoin="round" stroke-miterlimit="10" data-original="#000000">
		</circle>
		<path d="M10.236 492.091a9.961 9.961 0 0 0 7.264 3.141h97.773l-53.887-61.864-51.15 58.723z" style="" fill="#d88a55" data-original="#d88a55">
		</path>
		<path d="M10.236 492.091a9.961 9.961 0 0 0 7.264 3.141h97.773l-53.887-61.864-51.15 58.723zM61.387 170.447V304M61.387 339v94.368" style="stroke-width:15;stroke-linecap:round;stroke-linejoin:round;stroke-miterlimit:10;" fill="none" stroke="#000000" stroke-width="15" stroke-linecap="round" stroke-linejoin="round" stroke-miterlimit="10" data-original="#000000">
		</path>
	</g>
</svg>
