<svg xmlns="http://www.w3.org/2000/svg" version="1.1" xmlns:xlink="http://www.w3.org/1999/xlink" width="512" height="512" x="0" y="0" viewBox="0 0 480.078 480.078" style="enable-background:new 0 0 512 512" xml:space="preserve" class="">
	<g>
		<path fill="#ffd175" d="M339.643 170.719c-16.5-26.4-41.5-44-55.3-51.3-27.1-14.4-45.1-14.4-45.7-29.5h-74s-1.2 27.1-31.9 60.2c-6.7 7.2-13 17.1-18.6 29.1-37.6 71-18 242.6 22.2 264.1a39.315 39.315 0 0 0 20.5 5.8h140.9a39.57 39.57 0 0 0 14.8-2.9c43.5-18.4 69.7-207.5 27.1-275.5zm-17.6 130.5c-17.5.1-10.4-32.4-16.8-57.2s-37.6-67.2-15.8-68c18.4-.7 31.7 26.6 40.3 52.8a126.79 126.79 0 0 1 4.6 20.2c4.08 35.3-.2 52.3-12.3 52.2z" opacity="1" data-original="#ffd175">
		</path>
		<path fill="#c9aa68" d="M142.423 398.619a28.927 28.927 0 0 0 23.6 12.1h78.7c12.68 0 23.88-8.28 27.6-20.4 6.3-20 9.9-43.2 9.9-67.8 0-76.4-34.4-138.3-76.9-138.3-35.5 0-65.3 43.2-74.2 101.9-6.58 55.2-2.48 86.9 11.3 112.5z" opacity="1" data-original="#c9aa68">
		</path>
		<path fill="#967739" d="M235.143 59.819h-4.3v-27c.03-5.99-4.8-10.87-10.78-10.9-.01-.01-.02-.01-.03-.01h-39.7a10.91 10.91 0 0 0-10.92 10.9v27h-4.3a8.262 8.262 0 0 0-8.3 8.25c-.01.01-.01.02 0 .04v13.36c-.02 4.57 3.68 8.28 8.25 8.3h70.04c4.57.01 8.28-3.69 8.3-8.26v-13.41a8.277 8.277 0 0 0-8.26-8.3c-.01-.01-.02-.01-.03-.01z" opacity="1" data-original="#967739">
		</path>
		<path fill="#84c8e1" d="M227.743 283.319c0 11.45-9.3 20.75-20.75 20.75-11.46 0-20.75-9.3-20.75-20.75 0-10.7 7.3-18.7 11-26.8 3.2-7 6.6-16.8 8.4-22.1.19-.67.9-1.05 1.56-.85.04.01.08.02.13.04v-.001c.39.09.7.4.8.8 1.8 5.4 5.2 15.2 8.4 22.1 3.88 8.1 11.2 16.1 11.2 26.8z" opacity="1" data-original="#84c8e1">
		</path>
		<path fill="#a0d972" d="M194.943 364.719c-.2-.9-3.9-31.6 26.2-27.9 22.8 2.8 28.2-21.8 28.2-21.8s5.6 27.6-13 51.5c-9 11.5-22.7 10.8-28.5 9.6-7.2-1.64-11.5-6-12.9-11.4z" opacity="1" data-original="#a0d972">
		</path>
		<path fill="#7ba15b" d="M195.243 365.619c1.6 5 5.9 9 12.7 10.4 5.8 1.2 19.6 1.9 28.5-9.6 18.3-23.5 13.1-50.7 13-51.4-7.3 36.3-18.6 48.5-42.8 45.9l-.1-.2c-3.6 1.6-7.5 3.1-11.3 4.9z" opacity="1" data-original="#7ba15b">
		</path>
		<path fill="#84c8e1" d="M227.823 283.479h-.001c.35 11.43-8.63 20.98-20.06 21.34-11.44.35-20.99-8.63-21.35-20.06-.02-.43-.02-.86 0-1.29 0-10.72 7.3-18.69 11-26.83 3.18-6.95 6.61-16.79 8.42-22.15a1.332 1.332 0 0 1 2.53-.01c1.8 5.36 5.23 15.18 8.4 22.13 3.74 8.11 11.04 16.09 11.04 26.85z" opacity="1" data-original="#84c8e1">
		</path>
		<path fill="#a0d972" d="M195.063 364.809c-.21-.92-3.86-31.64 26.24-27.94 22.83 2.8 28.22-21.79 28.22-21.79s5.62 27.64-13 51.45c-9 11.47-22.73 10.83-28.51 9.61-7.22-1.53-11.59-5.92-12.95-11.33z" opacity="1" data-original="#a0d972">
		</path>
		<path fill="#7ba15b" d="M195.333 365.739c1.6 5 5.88 8.95 12.7 10.4 5.79 1.22 19.56 1.86 28.51-9.6 18.33-23.48 13.13-50.67 13-51.44-7.31 36.28-18.62 48.44-42.85 45.93l-.09-.18c-3.56 1.57-7.4 3.09-11.27 4.89z" opacity="1" data-original="#7ba15b">
		</path>
		<path fill="#8ccd74" d="M114.243 458.019c13.5 0 27.4-12.5 27.4-54.9 0-131.3-25-142.7-25-176.2 0-21 17.5-18.5 17.5-30.4s-20.3-22-36.9-31.4c0 0-14 1.5-24 1.5s-24-1.5-24-1.5c-16.5 9.5-36.82 19.5-36.82 31.36s17.5 9.5 17.5 30.4c0 33.4-25 44.9-25 176.2 0 42.4 14 54.9 27.5 54.9z" opacity="1" data-original="#8ccd74">
		</path>
		<path fill="#6ba257" d="M37.243 438.119a8.371 8.371 0 0 1-7.8-5.2c-2.1-5.2-4.7-14.6-4.7-29.8 0-51.7 4-84 8.6-106.2h-.001c3.96-18.86 20.62-32.35 39.9-32.3 19.25-.01 35.89 13.46 39.9 32.3 4.7 22.2 8.6 54.5 8.6 106.2 0 15.2-2.6 24.6-4.7 29.8h-.001a8.557 8.557 0 0 1-7.8 5.2z" opacity="1" data-original="#6ba257">
		</path>
		<path fill="#84bcde" d="M92.243 325.119c0 10.16-8.24 18.4-18.4 18.4-10.17 0-18.4-8.24-18.4-18.4 0-9.5 6.5-16.6 9.8-23.9 2.8-6.2 5.9-14.9 7.5-19.7.2-.63.86-.98 1.5-.8.4.1.6.4.8.8 1.6 4.8 4.7 13.5 7.5 19.7 3.2 7.2 9.7 14.26 9.7 23.9z" opacity="1" data-original="#84bcde">
		</path>
		<path fill="#a0d972" d="M91.343 392.619c.1-.8-.6-28.4-26.6-21.3-19.8 5.3-27.6-15.7-27.6-15.7s-1.5 25.1 17.9 43.7c9.3 9 21.4 6.7 26.3 4.9 6.2-2.3 9.5-6.74 10-11.6z" opacity="1" data-original="#a0d972">
		</path>
		<path fill="#9e8963" d="M85.043 142.219h-.3v-11h-.001a8.156 8.156 0 0 0-.8-3.4l-3.6-7.2c-1.92-3.78-6.49-5.33-10.3-3.5v-.001a8.192 8.192 0 0 0-3.4 3.3l-3.9 7.4c-.61 1.1-.92 2.34-.9 3.6v10.8h-.3c-4.46.03-8.04 3.68-8.01 8.13V167.308v-.001c13.01 2.09 26.28 2.09 39.3 0v-16.9a7.916 7.916 0 0 0-7.6-8.2c-.07-.01-.14-.01-.21-.01z" opacity="1" data-original="#9e8963">
		</path>
		<path fill="#7ba15b" d="M91.243 393.419c-.8 4.6-4.1 8.6-9.9 10.8-5 1.8-17 4.1-26.3-4.9-19.1-18.4-17.9-43-17.9-43.7 11 31.1 22.5 40.4 43.5 35.1v-.24c3.4 1 7 1.84 10.6 2.94z" opacity="1" data-original="#7ba15b">
		</path>
		<path fill="#84c3e8" d="M323.143 333.619c-4.2 26-8.1 77.9-4.8 106.8.2 1.7.4 3.4.7 4.9.6 4 4.1 12.4 10.7 12.4h121.68c5.98 0 10.84-4.82 10.9-10.8v-111.5c0-12.4-9.8-24.9-15.9-31.2-7.2-7.5-30.5-28.1-30.5-28.1-4.6-3.35-6.89-9.01-5.9-14.6l2.1-12.1h-.001c.56-3.45-.07-6.98-1.8-10l-3.5-6c-2.5-4.25-2.72-9.46-.6-13.9l1.1-2.3c1.28-2.68.15-5.89-2.53-7.17-.03-.02-.06-.03-.08-.04a5.91 5.91 0 0 0-2.3-.5h-39.6c-6.4.2-11 7.3-12.7 11.2-6 13.9-11.1 32.3-15.7 52.7-4.18 18.8-7.88 39.5-11.28 60.2z" opacity="1" data-original="#84c3e8">
		</path>
		<path fill="#c0ecfd" d="M387.043 291.479c-21.02-.16-39.03 14.97-42.5 35.7-.5 3.1-1 6.3-1.6 9.6-3.5 21.2-6.7 62-5.5 89.8.28 6.14 5.34 10.98 11.5 11h81.6c6.4-.01 11.59-5.2 11.6-11.6v-90.7c0-3.2-3.6-10.3-10.3-17.3-3-3.2-9.9-9.5-16.5-15.5a42.632 42.632 0 0 0-28.3-11z" opacity="1" data-original="#c0ecfd">
		</path>
		<path fill="#65a9cc" d="M371.343 346.219c-.23 9.83 7.56 17.97 17.4 18.2 9.83.22 17.97-7.57 18.2-17.4v-.81c0-9.2-6.3-16.1-9.5-23.1-2.7-6-5.7-14.4-7.2-19-.23-.6-.9-.91-1.5-.7l-.001-.001c-.33.12-.58.37-.7.7-1.5 4.6-4.5 13.1-7.2 19-3.2 7-9.5 13.9-9.5 23.1z" opacity="1" data-original="#65a9cc">
		</path>
		<path fill="#a0d972" d="M368.943 411.479c-.1-.8.5-27.4 25.8-20.6 19.1 5.2 26.7-15.1 26.7-15.1s1.4 24.2-17.3 42.3c-9 8.7-20.7 6.5-25.5 4.7-6-2.3-9.22-6.56-9.7-11.3z" opacity="1" data-original="#a0d972">
		</path>
		<path fill="#c8e0ee" d="m335.943 162.819 2-3.1a69.64 69.64 0 0 1 58.9-32.4h59.58c1.92.02 3.47 1.57 3.5 3.5v11.66c0 1.85-1.45 3.39-3.3 3.5-14.5.9-22.3 3.2-32.1 7.4-2.1 21 7.9 36.7 18.9 48.5.89.98 1.09 2.41.5 3.6a3.11 3.11 0 0 1-4.2 1.2c-.1-.13-.25-.2-.4-.2l-.001-.001a98.721 98.721 0 0 1-31.1-42.2 35.31 35.31 0 0 0-9 18 4.077 4.077 0 0 1-3.9 3.2h-46.9c-8.16.01-14.79-6.59-14.8-14.74-.01-.03-.01-.05 0-.07.1-2.78.89-5.48 2.32-7.86z" opacity="1" data-original="#c8e0ee">
		</path>
		<path fill="#515151" d="M363.423 209.419h32.4l-5.2-24h-22.3l-5.2 24z" opacity="1" data-original="#515151">
		</path>
		<path fill="#7ba15b" d="M369.043 412.319c.8 4.4 3.9 8.4 9.6 10.4 4.8 1.8 16.5 4 25.5-4.7 18.5-17.8 17.3-41.6 17.3-42.3-10.6 30-21.8 39-42.1 33.9v-.2c-3.3 1-6.8 1.8-10.3 2.9z" opacity="1" data-original="#7ba15b">
		</path>
		<g fill="#fff">
			<path d="M408.243 164.319c4.2-4.7 9.8-8.2 16.2-10.9-2.1 21 7.9 36.7 18.9 48.6v-.001c.9.97 1.1 2.41.5 3.6-.79 1.45-2.61 2-4.07 1.22-.02-.01-.03-.02-.04-.03-.1-.1-.3-.2-.4-.3v-.001a96.115 96.115 0 0 1-31.1-42.2zM473.343 144.419l-11.1 1.4c-1.04.15-2.03-.5-2.3-1.5v-15.2a1.92 1.92 0 0 1 2.04-1.81h.25l11.1 1.4h-.001c.94.07 1.68.85 1.7 1.8v12.2c-.1.89-.81 1.6-1.7 1.7z" fill="#ffffff" opacity="1" data-original="#ffffff">
			</path>
		</g>
		<g fill="#414042">
			<path d="M73.923 348.609c12.92-.02 23.39-10.5 23.41-23.42 0-10.84-6.23-17.64-10.26-26-2.74-6-5.74-14.6-7.28-19.2a6.21 6.21 0 0 0-7.86-3.9 6.163 6.163 0 0 0-3.9 3.89c-1.54 4.6-4.54 13.22-7.29 19.22-4 8.31-10.22 15.1-10.25 25.94-.02 12.94 10.47 23.44 23.41 23.46zm-7.78-38.38a91.47 91.47 0 0 0 7.77-16.81 89.829 89.829 0 0 0 7.78 16.8c2.9 4.93 5.64 9.58 5.64 15 .2 7.4-5.64 13.57-13.05 13.78-7.41.2-13.58-5.64-13.79-13.05a9.13 9.13 0 0 1 0-.74c0-5.42 2.74-10.07 5.64-14.99zM96.363 389.919c-1.53-16.06-12.84-29.13-32.8-23.38-6.31 1.7-11.58.3-16.13-4.28a27.096 27.096 0 0 1-5.49-8.3l-.001-.001a5.008 5.008 0 0 0-6.43-2.96 4.994 4.994 0 0 0-3.26 4.4c-.06 1.12-1.37 27.6 19.43 47.62 9.08 9 21.83 8.65 31 6.13 6.36-1.81 4-11.11-2.42-9.71-4.25 1.06-14.2 3.55-21.66-3.63h-.001a52.973 52.973 0 0 1-13.8-22.79c5.44 3.61 12.56 5.53 21.34 3.16 10.85-3.09 17.16 1.16 19.49 10.58-3.43-.8-6.77-1.89-10-3.26-6-2.64-10.17 6-4.28 9 13 5.82 28.69 5 38.22 18.48 1.6 2.24 4.73 2.75 6.98 1.15a5.016 5.016 0 0 0 1.15-6.98l-.01-.01c-6.04-8.35-13.8-12.56-21.35-15.24z" fill="#414042" opacity="1" data-original="#414042" class="">
			</path>
			<path d="m474.043 123.839-11.08-1.36c-1.2-.15-2.41 0-3.53.45-.92-.34-1.88-.5-2.85-.5h-59.6a74.291 74.291 0 0 0-62 33c-28.08-33-47.8-41-72.09-51.19-12.8-5.15-17.81-7.6-18.87-12.66v-.001a13.56 13.56 0 0 0 4.59-10.15V68.469c-.02-7.13-5.53-13.04-12.63-13.54v-21.71c-.02-8.95-7.27-16.2-16.21-16.21h-38.95c-8.95.01-16.2 7.26-16.21 16.21v21.73h-.001c-7.1.5-12.61 6.4-12.63 13.52v12.91c.01 5.04 2.82 9.66 7.3 12-4.06 17.7-11.2 32.18-30 53.3-6 6.68-11.14 14.09-15.3 22.05-2.9-1.7-5.88-3.37-8.84-5-2.38-1.14-4.45-3-7-3.55v-9.62c.01-5.4-3.24-10.27-8.22-12.31-.11-3.59.56-9.29-1.32-12.52l-3.65-7.26c-3.1-6.28-10.69-8.85-16.96-5.76a12.661 12.661 0 0 0-5.58 5.4l-4 7.43c-2.06 3.3-1.39 9-1.49 12.72h-.001a13.238 13.238 0 0 0-8.22 12.31v9.63c-2.55.58-4.62 2.4-7 3.54-16.82 9.42-34.21 19.17-34.21 32.83 0 7.63 4.93 11.4 8.89 14.42 4.6 3.52 8.58 6.56 8.58 16 0 10.44-2.64 18.67-6.3 30.06-7.43 23.14-18.66 58.11-18.66 146.12-.08 28.7 6.73 59.23 32.46 59.9h81.95c6.56 0 15.83-2.39 22.89-13.7a44.42 44.42 0 0 0 19.8 4.68h140.8v-.001c6.15.03 12.24-1.27 17.86-3.8 2.13 5.92 6.95 12.51 14.55 12.51h121.74v-.001c8.73-.02 15.8-7.09 15.82-15.82V335.459c0-15-12.07-29.23-17.26-34.65-7.22-7.56-29.82-27.52-30.78-28.37a9.986 9.986 0 0 1-4.32-10l2.06-12.07h-.001c.78-4.61-.07-9.35-2.41-13.39l-3.48-6a9.971 9.971 0 0 1-.41-9.24l1.07-2.27h-.001c2.45-5.23.2-11.45-5.02-13.9-1.39-.66-2.91-1-4.45-1h-2.89l-3.05-14.12a8.962 8.962 0 0 0 7.34-7.11v-.001c.57-3.06 1.58-6.02 3-8.79h-.001c6.8 14.04 16.72 26.35 29 36a8.03 8.03 0 0 0 11.34-.54c2.98-3.29 2.74-8.36-.54-11.34-12.7-13.79-18.4-27.14-17.77-41.77 8.23-3.29 15.4-5.15 27.76-5.89a9.47 9.47 0 0 0 2.57-.57c1.05.37 2.18.49 3.3.35l11.07-1.4v-.001c3.42-.4 6.02-3.27 6.08-6.71v-12.198a6.85 6.85 0 0 0-6.06-6.67zm-299.43-90.61a6.21 6.21 0 0 1 6.21-6.211h38.94c3.42 0 6.2 2.78 6.21 6.21v21.69h-51.36zm-12.63 35.25c0-1.98 1.6-3.58 3.58-3.58h69.46c1.97 0 3.58 1.6 3.58 3.58v12.91a3.59 3.59 0 0 1-3.58 3.58h-69.46c-1.98 0-3.58-1.61-3.58-3.58zm-103.22 82.11a3.11 3.11 0 0 1 2.759-3.23c7.92.84 15.91.84 23.84 0 1.62.19 2.82 1.59 2.76 3.23v10.37h-.001c-9.77.85-19.6.85-29.36 0zm8.53-20.34 4-7.43c.67-1.3 2.27-1.81 3.57-1.14.5.26.91.68 1.16 1.2l3.63 7.32c.18.36.27.77.28 1.18v6.39c-4.31.27-8.62.27-12.92 0v-6.3h-.001c-.01-.43.08-.85.27-1.23zm47.13 322.86h-81.9c-14.27 0-22.46-18.18-22.46-49.9 0-86.45 10.94-120.52 18.18-143.06 6.74-20.26 13.3-44.94-5.73-57.08-3.75-2.87-5-4-5-6.48-.2-8.55 20.61-19.28 33-26.31 4 .4 14.65 1.36 22.88 1.36s18.86-1 22.88-1.36c12.41 7 33.21 17.76 33 26.31-.21 7.64-17.56 8-17.47 30.44 0 12 3 21.32 6.78 33.12 7.24 22.54 18.18 56.61 18.18 143.06.06 31.72-8.13 49.9-22.34 49.9zm32.42-57.15c-.39-54.12-5.16-87.25-10.43-110 12-85.56 74.84-135.48 119.12-58.79 24.21 42 28.22 112.89 12.24 161.71a24.024 24.024 0 0 1-22.92 16.89h-78.7c-7.69.16-14.95-3.52-19.36-9.81zm151.12 48.13h-140.9v-.001a34.367 34.367 0 0 1-15.48-3.7c3-8.13 4.66-18.36 5.11-30.56a34.188 34.188 0 0 0 19.46 6h78.65c14.89.03 28.06-9.67 32.46-23.89 16.81-51.41 12.49-125.18-13-169.57-15.44-27.78-36.3-43.08-58.73-43.08-39.88.23-65.56 46.23-75 85.29-4-13-8.82-25.13-8.66-37.51 0-9.46 4-12.5 8.58-16 16.28-11.29 8.4-26.46-8-36.92v-.001a98.482 98.482 0 0 1 14.13-20.55c24.36-26.27 30.86-49 32.59-58.55h65.35c2.72 9.7 12.57 13.66 24.62 18.51 26.37 10.18 48.84 23.6 70.53 51.45-3.54 10.24 3.34 22.62 13.91 25v-.001c2.7 7.18 4.87 14.55 6.51 22.06a29.308 29.308 0 0 0-4.05 6.73v-.001c-3.07 7.28-5.72 14.74-7.93 22.33-7.49-35.65-28.2-72.43-48.69-69.93-6.22.22-9.25 3.11-10.69 5.5-8.52 13.88 18.08 50.86 21.8 68.72 2.08 8.05 2.65 17 3.21 25.72.85 15.82 2.09 36.38 19.64 35.18-7.61 39.23-13.1 91.74-9.46 133.57-4.82 3.1-10.42 4.1-16.01 4.2zm61.22-238.8-.31.12c-1.3-5.233-2.753-10.173-4.36-14.82h7.85zm-33.78 90.13c-9.33 4.24-10.42-6.19-11.68-24.91-.56-8.73-1.19-18.61-3.5-27.59-2.23-8.67-7.21-19.09-12-29.16-4-8.85-12.91-25.67-10.92-31.88.15-.45 1.82-.72 2.95-.7 15.55-1.9 35.53 40.25 39.31 68.62.81 7 1.29 13.4 1.43 18.95-2.07 8.73-3.92 17.73-5.64 26.67zm77.92-80.65c.07.13.07.29 0 .43l-1.09 2.28a19.973 19.973 0 0 0 .81 18.51l3.48 6a9.974 9.974 0 0 1 1.2 6.68l-2.06 12.07a19.85 19.85 0 0 0 7.76 19.36c2.08 1.84 23.39 20.71 30 27.64 3.39 3.55 14.48 16.05 14.48 27.74v111.5a5.838 5.838 0 0 1-5.82 5.82h-121.76c-15-.93-4.19-106-1.66-118.32 6.11-37.51 14.66-84.12 26.58-111.78.94-2.16 2.27-4.12 3.92-5.8h-.001a6.714 6.714 0 0 1 4.43-2.34h39.3v-.001c.15-.02.3.07.38.21zm-33.8-10.21 3-14h14.2l3 14zm25.13-24h-46.06c-7.52.21-12.47-8.77-8.26-15l2-3.12v-.001a64.374 64.374 0 0 1 54.67-30.07h58.09v8.8c-14.19 1-22.41 3.49-32.39 7.71-14.64 6.14-24.74 16.43-28.05 31.71zm19.55-14.91v-.001c1.6-1.44 3.32-2.73 5.16-3.85a59.09 59.09 0 0 0 6.37 23.84h-.001a94.3 94.3 0 0 1-11.53-19.96zm55.92-25.82-5.05.64v-7.69l5.05.64z" fill="#414042" opacity="1" data-original="#414042" class="">
			</path>
			<path d="M389.313 298.419c-2.65 0-5 1.69-5.83 4.2-1.5 4.44-4.39 12.76-7 18.55-3.91 8.06-9.9 14.64-9.93 25.17.26 12.59 10.68 22.59 23.28 22.32 12.22-.26 22.07-10.11 22.32-22.33 0-10.53-6-17.1-9.93-25.16-2.65-5.79-5.55-14.12-7-18.56a6.129 6.129 0 0 0-5.92-4.2zm12.81 47.92c-.71 17-24.91 17-25.61 0 0-5.17 2.64-9.65 5.43-14.4a85.8 85.8 0 0 0 7.37-15.85 85.583 85.583 0 0 0 7.38 15.86c2.79 4.75 5.43 9.22 5.43 14.39zM396.103 386.149c-19.33-5.56-30.38 7.05-31.91 22.65-7.29 2.6-14.79 6.69-20.6 14.8h-.001a4.989 4.989 0 0 0 1.03 6.99 5 5 0 0 0 6.99-1.04c.03-.05.06-.1.1-.15 9.19-12.95 24.37-12.18 36.89-17.81 5.88-3 1.79-11.68-4.28-9a58.517 58.517 0 0 1-9.39 3.06c2.26-8.87 8.35-12.75 18.55-9.83 8.35 2.25 15.14.53 20.39-2.83a51.176 51.176 0 0 1-13.17 21.47c-7.15 6.88-16.7 4.49-20.78 3.47-2.69-.66-5.39.99-6.04 3.67-.65 2.65.96 5.33 3.6 6.02h-.001c3.56.97 7.22 1.49 10.92 1.55 7.16.15 14.09-2.54 19.27-7.49 20.16-19.41 18.89-45.08 18.83-46.17a5.008 5.008 0 0 0-5.29-4.7 4.995 4.995 0 0 0-4.39 3.22c-2.88 6.97-10.27 15.29-20.75 12.08zM170.603 389.899a5.01 5.01 0 0 0 6.74-2.12c6.08-11.68 16.64-16.15 26.85-20.46 4.49-1.74 8.82-3.87 12.94-6.38 5.39-3.81.11-11.82-5.52-8.34-3.1 2.05-7.39 3.85-11.69 5.67.85-11.6 7.19-18.29 20.77-16.44 10.74 1.32 18.58-2.52 24-8v-.001a60.467 60.467 0 0 1-12.09 29.65c-7.37 9.43-19.06 8.23-24.05 7.7a4.997 4.997 0 0 0-5.48 4.47 4.994 4.994 0 0 0 4.47 5.47c2.14.24 4.3.37 6.46.39 7.52 0 18.61-1.77 26.5-11.89 19.79-25.34 14.19-54.31 13.94-55.53h-.001c-.55-2.71-3.18-4.47-5.89-3.92-1.96.39-3.49 1.9-3.91 3.84-.18.82-4.62 20.12-22.72 17.9-23.08-3.25-33.13 13.43-32 30.93-8 4.15-16.07 10-21.43 20.32h-.001a4.99 4.99 0 0 0 2.09 6.72zM207.123 309.149h-.001c14.17-.02 25.66-11.5 25.7-25.67 0-12-7-19.65-11.48-28.93-3.09-6.75-6.47-16.46-8.21-21.65-1.14-3.32-4.74-5.09-8.05-3.96a6.344 6.344 0 0 0-3.96 3.95c-1.75 5.19-5.13 14.9-8.23 21.67-4.48 9.23-11.48 16.85-11.48 28.91.03 14.17 11.52 25.65 25.7 25.67zm-9.28-42.85c4-6.38 6.6-13.09 9.28-20.37 2.68 7.28 5.29 14 9.27 20.36 3.31 5.62 6.43 10.92 6.43 17.15h-.001c.32 8.67-6.45 15.95-15.12 16.27-8.68.32-15.96-6.45-16.28-15.12-.02-.38-.02-.75-.01-1.13 0-6.27 3.11-11.56 6.42-17.18z" fill="#414042" opacity="1" data-original="#414042" class="">
			</path>
		</g>
	</g>
</svg>
