<svg xmlns="http://www.w3.org/2000/svg" version="1.1" xmlns:xlink="http://www.w3.org/1999/xlink" width="512" height="512" x="0" y="0" viewBox="0 0 511.999 511.999" style="enable-background:new 0 0 512 512" xml:space="preserve">
	<g>
		<path d="M478.912 183.083h-8.164c-3.295-14.422-15.867-25.349-31.083-26.126L289.798 7.091c-9.295-9.295-24.324-9.409-33.788-.384-9.477-9.059-24.473-8.95-33.81.385L72.334 156.958c-15.217.777-27.787 11.706-31.083 26.126h-8.164c-8.718 0-15.811 7.092-15.811 15.811v35.724c0 6.395 3.823 11.903 9.297 14.391 44.713 244.276 33.731 190.931 46.773 239.093C77.158 502.174 90 512 104.577 512h133.921c4.143 0 7.5-3.357 7.5-7.5s-3.357-7.5-7.5-7.5h-133.92c-7.818 0-14.708-5.271-16.752-12.819l-6.642-24.523h349.827l-5.906 23.626A18.084 18.084 0 0 1 407.537 497H273.501a7.499 7.499 0 0 0-7.5 7.5c0 4.143 3.357 7.5 7.5 7.5h134.036a33.064 33.064 0 0 0 32.121-25.078c12.781-51.128.903 7.197 45.768-237.914 5.474-2.488 9.296-7.995 9.296-14.39v-35.724c.001-8.717-7.091-15.811-15.81-15.811zM266.193 17.698c3.578-3.58 9.411-3.586 12.999 0l184.95 184.952c3.553 3.55 3.606 9.393 0 12.998-3.566 3.569-9.415 3.584-12.998 0L266.193 30.697c-3.584-3.584-3.584-9.415 0-12.999zm105.001 139.215H273.5a7.5 7.5 0 0 0-7.5 7.5 7.5 7.5 0 0 0 7.5 7.5h112.695l11.17 11.17h-282.73l11.169-11.17h112.694a7.5 7.5 0 0 0 7.5-7.5 7.5 7.5 0 0 0-7.5-7.5h-97.693L255.999 41.72l115.195 115.193zM47.23 203.344c.497-.609 185.023-185.09 185.579-185.646a9.186 9.186 0 0 1 12.998 0 9.188 9.188 0 0 1 0 13L60.856 215.648c-4.104 4.106-10.984 3.416-14.182-1.452-2.214-3.369-1.941-7.795.556-10.852zm-5.146 47.085h32.06l4.24 36.466H48.759l-6.675-36.466zm9.42 51.465h28.623l4.522 38.887-26.018.051-7.127-38.938zm9.873 53.935 25.018-.049 4.537 39.02H68.51l-7.133-38.971zm27.869-105.401h25.65l4.24 36.466h-25.65l-4.24-36.466zM77.637 444.655l-6.38-34.856h21.421l4.053 34.856H77.637zm17.594-142.761h25.65l4.512 38.807-25.644.051-4.518-38.858zm6.263 53.855 25.644-.051 4.547 39.1h-25.65l-4.541-39.049zm28.505-105.321h32.493l1.687 36.466H134.24l-4.241-36.466zm-18.167 194.227-4.053-34.856h25.65l4.053 34.856h-25.65zm24.152-142.761h28.888l1.792 38.725-26.171.052-4.509-38.777zm6.254 53.775 25.121-.05 1.813 39.179h-22.384l-4.55-39.129zm10.347 88.986-4.053-34.856h21.334l1.613 34.856h-18.894zm24.923-194.226h25.736l1.688 36.466h-25.736l-1.688-36.466zm2.383 51.465h25.735l1.788 38.645-25.733.051-1.79-38.696zm2.484 53.696 25.733-.051 1.817 39.26h-25.736l-1.814-39.209zm4.122 89.065-1.613-34.856h25.735l1.613 34.856h-25.735zm62.003 0h-21.25l-1.613-34.856H248.5v34.856zm0-49.856h-23.557l-1.818-39.29 25.375-.05v39.34zm0-54.341-26.069.052-1.787-38.615H248.5v38.563zm0-53.564h-28.55l-1.688-36.466H248.5v36.466zm36.251 157.761h-21.25V409.8h22.863l-1.613 34.855zm2.307-49.856h-23.557V355.43l25.382-.05-1.825 39.419zm2.518-54.422-26.076.052v-38.535h27.857l-1.781 38.483zm2.475-53.483H263.5v-36.466h30.238l-1.687 36.466zm33.453 157.761h-25.735l1.613-34.856h25.736l-1.614 34.856zm2.307-49.856h-25.736l1.826-39.449 25.738-.051-1.828 39.5zm2.522-54.502-25.738.051 1.779-38.453h25.736l-1.777 38.402zm2.471-53.403h-25.735l1.688-36.466h25.735l-1.688 36.466zm26.611 157.761H340.52l1.613-34.856h21.335l-4.053 34.856zm5.798-49.856h-22.385l1.829-39.53 25.158-.05-4.602 39.58zm-19.861-54.532 1.776-38.372h28.888l-4.456 38.321-26.208.051zm2.47-53.372 1.688-36.466H382l-4.24 36.466h-29.938zm52.346 157.76h-25.65l4.053-34.856h25.65l-4.053 34.856zm5.798-49.856h-25.65l4.606-39.609 25.656-.051-4.612 39.66zm-19.3-54.614 4.453-38.291h25.65l-4.447 38.24-25.656.051zm6.197-53.291 4.24-36.466h25.65l-4.24 36.466h-25.65zm41.502 157.761h-19.094l4.053-34.856h21.421l-6.38 34.856zm9.125-49.856h-22.422l4.615-39.69 25.081-.049-7.274 39.739zm10.022-54.746-26.083.052 4.443-38.21h28.624l-6.984 38.158zm9.73-53.159h-29.626l4.24-36.466h32.061l-6.675 36.466zm16.481-52.277c0 .446-.363.81-.81.81H33.086a.81.81 0 0 1-.809-.809v-15.565a24.193 24.193 0 0 0 3.436 5.514l.069.08c9.24 11.034 25.766 11.522 35.68 1.609l.001-.001 28.171-28.171h312.731l28.171 28.171.001.001c11.776 11.775 32.177 8.406 39.185-7.204v15.565z" fill="#000000" opacity="1" data-original="#000000">
		</path>
	</g>
</svg>
