<svg xmlns="http://www.w3.org/2000/svg" version="1.1" xmlns:xlink="http://www.w3.org/1999/xlink" width="512" height="512" x="0" y="0" viewBox="0 0 512 512" style="enable-background:new 0 0 512 512" xml:space="preserve" class="">
	<g>
		<path d="M123.605 12.961H61.144c-20.789 0-37.704 16.913-37.704 37.706v62.459c0 20.794 16.915 37.706 37.704 37.706h62.462c20.789 0 37.702-16.913 37.702-37.706V50.667c-.001-20.794-16.914-37.706-37.703-37.706zm25.846 100.165c0 14.254-11.594 25.851-25.846 25.851H61.144c-14.252 0-25.848-11.596-25.848-25.851V50.667c0-14.254 11.596-25.851 25.848-25.851h62.462c14.252 0 25.846 11.596 25.846 25.851v62.459zM287.233 12.961h-62.464c-20.789 0-37.702 16.913-37.702 37.706v62.459c0 20.794 16.913 37.706 37.702 37.706h62.464c20.789 0 37.702-16.913 37.702-37.706V50.667c0-20.794-16.913-37.706-37.702-37.706zm25.846 100.165c0 14.254-11.594 25.851-25.846 25.851h-62.464c-14.252 0-25.846-11.596-25.846-25.851V50.667c0-14.254 11.594-25.851 25.846-25.851h62.464c14.252 0 25.846 11.596 25.846 25.851zM450.859 12.961h-62.462c-20.789 0-37.702 16.913-37.702 37.706v62.459c0 20.794 16.913 37.706 37.702 37.706h62.462c20.789 0 37.702-16.913 37.702-37.706V50.667c-.001-20.794-16.913-37.706-37.702-37.706zm25.846 100.165c0 14.254-11.594 25.851-25.846 25.851h-62.462c-14.252 0-25.846-11.596-25.846-25.851V50.667c0-14.254 11.594-25.851 25.846-25.851h62.462c14.252 0 25.846 11.596 25.846 25.851zM123.605 187.066H61.144c-20.789 0-37.704 16.913-37.704 37.706v62.459c0 20.794 16.915 37.706 37.704 37.706h62.462c20.789 0 37.702-16.913 37.702-37.706v-62.459c-.001-20.793-16.914-37.706-37.703-37.706zm25.846 100.166c0 14.254-11.594 25.851-25.846 25.851H61.144c-14.252 0-25.848-11.596-25.848-25.851v-62.459c0-14.255 11.596-25.851 25.848-25.851h62.462c14.252 0 25.846 11.596 25.846 25.851v62.459zM287.233 187.066h-62.464c-20.789 0-37.702 16.913-37.702 37.706v62.459c0 20.794 16.913 37.706 37.702 37.706h62.464c20.789 0 37.702-16.913 37.702-37.706v-62.459c0-20.793-16.913-37.706-37.702-37.706zm25.846 100.166c0 14.254-11.594 25.851-25.846 25.851h-62.464c-14.252 0-25.846-11.596-25.846-25.851v-62.459c0-14.255 11.594-25.851 25.846-25.851h62.464c14.252 0 25.846 11.596 25.846 25.851zM450.859 187.066h-62.462c-20.789 0-37.702 16.913-37.702 37.706v62.459c0 20.794 16.913 37.706 37.702 37.706h62.462c20.789 0 37.702-16.913 37.702-37.706v-62.459c-.001-20.793-16.913-37.706-37.702-37.706zm25.846 100.166c0 14.254-11.594 25.851-25.846 25.851h-62.462c-14.252 0-25.846-11.596-25.846-25.851v-62.459c0-14.255 11.594-25.851 25.846-25.851h62.462c14.252 0 25.846 11.596 25.846 25.851zM123.605 361.172H61.144c-20.789 0-37.704 16.913-37.704 37.706v62.459c0 20.789 16.915 37.702 37.704 37.702h62.462c20.789 0 37.702-16.913 37.702-37.702v-62.459c-.001-20.793-16.914-37.706-37.703-37.706zm25.846 100.166c0 14.25-11.594 25.846-25.846 25.846H61.144c-14.252 0-25.848-11.596-25.848-25.846v-62.459c0-14.254 11.596-25.851 25.848-25.851h62.462c14.252 0 25.846 11.596 25.846 25.851v62.459zM287.233 361.172h-62.464c-20.789 0-37.702 16.913-37.702 37.706v62.459c0 20.789 16.913 37.702 37.702 37.702h62.464c20.789 0 37.702-16.913 37.702-37.702v-62.459c0-20.793-16.913-37.706-37.702-37.706zm25.846 100.166c0 14.25-11.594 25.846-25.846 25.846h-62.464c-14.252 0-25.846-11.596-25.846-25.846v-62.459c0-14.254 11.594-25.851 25.846-25.851h62.464c14.252 0 25.846 11.596 25.846 25.851zM450.859 361.172h-62.462c-20.789 0-37.702 16.913-37.702 37.706v62.459c0 20.789 16.913 37.702 37.702 37.702h62.462c20.789 0 37.702-16.913 37.702-37.702v-62.459c-.001-20.793-16.913-37.706-37.702-37.706zm25.846 100.166c0 14.25-11.594 25.846-25.846 25.846h-62.462c-14.252 0-25.846-11.596-25.846-25.846v-62.459c0-14.254 11.594-25.851 25.846-25.851h62.462c14.252 0 25.846 11.596 25.846 25.851z" fill="#000000" opacity="1" data-original="#000000" class="">
		</path>
	</g>
</svg>
