<svg xmlns="http://www.w3.org/2000/svg" version="1.1" xmlns:xlink="http://www.w3.org/1999/xlink" width="512" height="512" x="0" y="0" viewBox="0 0 472 472" style="enable-background:new 0 0 512 512" xml:space="preserve" class="">
	<g>
		<path d="M113.37 336.891c-18.54 0-33.623 15.13-33.623 33.727s15.083 33.727 33.623 33.727 33.624-15.13 33.624-33.727-15.084-33.727-33.624-33.727zm-23.623 33.727c0-11.36 7.992-20.876 18.623-23.187v46.374c-10.631-2.311-18.623-11.828-18.623-23.187zm28.623 23.187V347.43c10.632 2.311 18.624 11.827 18.624 23.187s-7.992 20.877-18.624 23.188zM425.238 308.397H396.65a5 5 0 1 1 0-10h28.588a5 5 0 1 1 0 10zM425.238 269.712H396.65a5 5 0 1 1 0-10h28.588a5 5 0 1 1 0 10zM425.238 347.083H396.65a5 5 0 1 1 0-10h28.588a5 5 0 1 1 0 10zM410.944 408.712c-10.666 0-19.343-8.441-19.343-18.816s8.677-18.816 19.343-18.816 19.343 8.441 19.343 18.816-8.677 18.816-19.343 18.816zm0-27.633c-5.151 0-9.343 3.955-9.343 8.816s4.191 8.816 9.343 8.816 9.343-3.955 9.343-8.816-4.191-8.816-9.343-8.816zM344.53 410.494H199.06a5 5 0 0 1-5-5V262.93a5 5 0 0 1 5-5h145.47a5 5 0 0 1 5 5v142.564a5 5 0 0 1-5 5zm-140.47-10h135.47V267.93H204.06z" fill="#000000" opacity="1" data-original="#000000" class="">
		</path>
		<path d="M437 227.93H185.696l6.378-53.489h16.879c7.863 0 14.238 7.182 13.387 15.006a5 5 0 0 0 9.942 1.083c1.484-13.64-9.578-26.088-23.328-26.088h-15.686l3.036-25.464h2.435a5 5 0 1 0 0-10h-5.414c-.709-20.817-17.853-37.536-38.84-37.536h-22.758c3.068-4.116 4.896-9.206 4.896-14.72 0-8.255-4.076-15.572-10.32-20.064V40.731h64.57c1.586 7.165 7.979 12.543 15.614 12.543h54.027c7.635 0 14.028-5.379 15.614-12.543h69.57V162.93a5 5 0 1 0 10 0V35.731a5 5 0 0 0-5-5h-74.184V10H347.5c13.785 0 25 11.215 25 25v157.93a5 5 0 1 0 10 0V35c0-19.299-15.701-35-35-35h-223c-19.299 0-35 15.701-35 35v31.147a24.548 24.548 0 0 0-2.384 10.573c0 5.514 1.828 10.604 4.896 14.72H72.288c-20.986 0-38.13 16.719-38.839 37.536H25a5 5 0 0 0-5 5c0 2.533 1.891 4.605 4.335 4.933l8.296 18.46 15.152 127.07c1.038 8.696 5.424 16.253 11.759 21.461a23.47 23.47 0 0 0-12.146 15.245l-21.906 87.48c-3.261 13.023 5.598 26.748 18.888 28.946V467a5 5 0 0 0 5 5h37.428a5 5 0 0 0 5-5v-29.108h50.544a5 5 0 1 0 0-10h-94.1c-8.594 0-15.147-8.5-13.059-16.837l21.906-87.48c1.508-6.024 6.879-10.231 13.06-10.231h68.582a5 5 0 1 0 0-10H80.252c-11.483 0-21.173-8.637-22.539-20.089l-7.282-61.071h125.88l-.736 6.171c-6.593 1.577-11.515 7.505-11.515 14.575v182.564c0 8.271 6.729 15 15 15h25.217V467a5 5 0 0 0 5 5h31.507a5 5 0 0 0 5-5v-26.506h124.493V467a5 5 0 0 0 5 5h31.507a5 5 0 0 0 5-5v-26.506H437c8.271 0 15-6.729 15-15V242.93c0-8.271-6.729-15-15-15zM200.486 10h66.027v27.275c0 3.309-2.691 6-6 6h-54.027c-3.309 0-6-2.691-6-6zM54.377 437.892h27.428V462H54.377zM99.5 35c0-13.785 11.215-25 25-25h65.986v20.731h-69.184a5 5 0 0 0-5 5v16.674a24.814 24.814 0 0 0-16.803 2.917V35zm12.369 27c8.136 0 14.754 6.604 14.754 14.72s-6.618 14.72-14.754 14.72c-8.135 0-14.753-6.604-14.753-14.72S103.734 62 111.869 62zm-39.581 39.44h82.196c15.472 0 28.138 12.234 28.84 27.536H43.449c.702-15.302 13.367-27.536 28.839-27.536zm-23.05 110.744-6.768-56.758a5.028 5.028 0 0 0-.404-1.458l-6.737-14.992h150.904l-8.729 73.208zM235.783 462h-21.507v-21.506h21.507zm133.747-31.506H179.06c-2.757 0-5-2.243-5-5V242.93c0-2.757 2.243-5 5-5h190.47zM401.783 462h-21.507v-21.506h21.507zM442 425.494c0 2.757-2.243 5-5 5h-57.47V237.93H437c2.757 0 5 2.243 5 5zM437.678 136.788a5 5 0 0 1-5-5v-6.643a5 5 0 1 1 10 0v6.643a5 5 0 0 1-5 5zM437.678 168.781a5 5 0 0 1-5-5v-5.643a5 5 0 1 1 10 0v5.643a5 5 0 0 1-5 5zM457 149.463h-5.645a5 5 0 1 1 0-10H457a5 5 0 1 1 0 10z" fill="#000000" opacity="1" data-original="#000000" class="">
		</path>
		<path d="M424 149.463h-5.645a5 5 0 1 1 0-10H424a5 5 0 1 1 0 10zM34.322 16.788a5 5 0 0 1-5-5V5.145a5 5 0 1 1 10 0v6.643a5 5 0 0 1-5 5zM34.322 48.781a5 5 0 0 1-5-5v-5.643a5 5 0 1 1 10 0v5.643a5 5 0 0 1-5 5zM53.645 29.463H48a5 5 0 1 1 0-10h5.645a5 5 0 1 1 0 10zM20.645 29.463H15a5 5 0 1 1 0-10h5.645a5 5 0 1 1 0 10z" fill="#000000" opacity="1" data-original="#000000" class="">
		</path>
		<ellipse cx="350.697" cy="191.185" rx="6.458" ry="6.452" fill="#000000" opacity="1" data-original="#000000" class="">
		</ellipse>
		<ellipse cx="224.697" cy="213.185" rx="6.458" ry="6.452" fill="#000000" opacity="1" data-original="#000000" class="">
		</ellipse>
	</g>
</svg>
