<svg xmlns="http://www.w3.org/2000/svg" version="1.1" xmlns:xlink="http://www.w3.org/1999/xlink" width="512" height="512" x="0" y="0" viewBox="0 0 609.619 609.619" style="enable-background:new 0 0 512 512" xml:space="preserve" class="">
	<g>
		<path d="M602.638 3.49H246.174c-3.839 0-6.98 3.141-6.98 6.98v262.694H128.09v-112.15h55.61c3.839 0 6.98-3.025 7.097-6.864 0-.349 0-.698-.116-1.163L176.72 56.774c-.582-3.374-3.49-5.933-6.98-5.933H72.48c-3.49 0-6.399 2.559-6.98 5.933l-13.961 96.213c-.582 3.839 2.094 7.329 5.817 7.911.349 0 .698.116 1.163.116h55.61v112.151H67.477c-12.914 0-24.897 5.119-32.808 13.961-6.515 7.097-9.656 16.637-8.609 26.176l9.191 82.95C14.193 403.582 0 423.476 0 445.813v16.869c0 5.584 2.094 10.936 5.933 15.008C2.094 481.762 0 487.113 0 492.698v47.35c0 12.099 9.889 21.988 21.988 21.988h5.352v35.6c0 3.839 3.141 6.98 6.98 6.98h30.365c3.025 0 5.817-1.978 6.748-4.886l11.75-37.694h30.946v28.62H92.024v13.961h60.846v-13.961h-24.78v-28.62h111.104v37.112c0 3.839 3.141 6.98 6.98 6.98h356.464c3.839 0 6.98-3.141 6.98-6.98V10.471c.001-3.84-3.14-6.981-6.98-6.981zM78.529 64.801h85.16l11.983 82.252H66.546zm309.114 424.174c-.698-4.305-2.676-8.144-5.701-11.285 3.839-4.072 6.05-9.423 6.05-15.008v-16.869a51.337 51.337 0 0 0-3.374-18.265h76.435v-13.961h-80.042v6.166c-6.631-11.518-17.451-20.243-30.132-24.199l.465-3.956h244.313v97.376H387.643zM595.658 76.202v301.436H431.387V76.202zm0-58.751v44.791H253.155V17.451zM253.155 76.202h164.271v301.436h-64.568l7.097-64.336c1.047-9.54-2.094-19.08-8.609-26.176-7.911-8.842-19.894-13.961-32.808-13.961h-65.383zM48.979 393.227l-9.074-81.438c-.582-5.584 1.396-11.169 5.235-15.357 5.235-5.933 13.379-9.307 22.337-9.307h251.061c8.958 0 17.102 3.374 22.337 9.307 3.839 4.188 5.817 9.773 5.235 15.357l-9.074 81.438zm-35.018 52.586c0-21.29 17.335-38.625 38.625-38.625h282.821c21.29 0 38.625 17.335 38.625 38.625v16.869c0 4.421-3.607 8.027-8.027 8.027H21.988c-4.421 0-8.027-3.607-8.027-8.027zm0 94.235v-47.35c0-4.421 3.607-8.027 8.027-8.027h343.899c4.421-.116 8.027 3.49 8.144 7.911v47.466c0 4.421-3.607 8.027-8.027 8.027H21.988c-4.421 0-8.027-3.606-8.027-8.027zm337.384 50.607h-18.149l-8.958-28.62h27.107zm-291.779 0H41.301v-28.62h27.223zm193.589-28.619h56.425l9.423 30.132h-65.848zm342.503 30.132H365.306v-30.132h.582c9.54 0 18.033-6.166 21.057-15.24h74.108v-13.961h-73.061v-29.899h207.666z" fill="#000000" opacity="1" data-original="#000000" class="">
		</path>
		<path d="M464.194 185.678h13.961v50.724h-13.961zM374.031 185.678h13.961v50.724h-13.961z" fill="#000000" opacity="1" data-original="#000000" class="">
		</path>
	</g>
</svg>
