<svg xmlns="http://www.w3.org/2000/svg" version="1.1" xmlns:xlink="http://www.w3.org/1999/xlink" width="512" height="512" x="0" y="0" viewBox="0 0 512.19 512.19" style="enable-background:new 0 0 512 512" xml:space="preserve" class="">
	<g>
		<path d="M98.716 320.969a5.99 5.99 0 0 0-5.888-5.29H69.474a6.088 6.088 0 0 0-5.888 7.386l9.382 38.625a5.888 5.888 0 0 0 5.789 4.491H97.82a5.687 5.687 0 0 0 4.391-1.996 5.79 5.79 0 0 0 1.497-4.691l-4.992-38.525zm-15.27 33.235-6.388-26.548h10.48l3.393 26.548h-7.485zM381.265 256.095h-27.147a5.887 5.887 0 0 0-5.888 5.19l-3.892 29.742a5.79 5.79 0 0 0 1.497 4.691 5.89 5.89 0 0 0 4.491 1.996h26.149a5.988 5.988 0 0 0 5.888-4.99l4.791-29.642a6.09 6.09 0 0 0-1.297-4.89 6.39 6.39 0 0 0-4.592-2.097zm-9.881 29.642h-14.272l2.296-17.666h14.771l-2.795 17.666zM142.731 238.13a5.99 5.99 0 0 0 4.391-1.896 6.087 6.087 0 0 0 1.597-4.491l-1.896-29.642a5.988 5.988 0 0 0-5.988-5.589H107.6a5.986 5.986 0 0 0-4.491 2.096 5.79 5.79 0 0 0-1.397 4.691l3.793 29.742a5.889 5.889 0 0 0 5.888 5.19l31.338-.101zm-7.486-29.642 1.098 17.665h-19.662l-2.296-17.666 20.86.001zM93.427 295.718a5.79 5.79 0 0 0 1.397-4.691l-3.793-29.742a5.89 5.89 0 0 0-5.889-5.19h-30.14a5.988 5.988 0 0 0-4.691 2.296 6.086 6.086 0 0 0-1.098 5.09l7.186 29.642a5.99 5.99 0 0 0 5.789 4.591h26.748a5.89 5.89 0 0 0 4.491-1.996zm-26.449-9.981-4.292-17.666h17.166l2.296 17.666h-15.17zM390.846 197.011h-29.043a5.988 5.988 0 0 0-5.988 5.19l-3.793 29.243a6.088 6.088 0 0 0 1.497 4.791 5.89 5.89 0 0 0 4.491 1.996h28.045a5.988 5.988 0 0 0 5.988-4.99l4.691-29.243a5.988 5.988 0 0 0-5.888-6.887v-.1zm-9.881 29.143h-16.168l2.196-17.266h16.767l-2.795 17.266zM85.742 236.134a5.985 5.985 0 0 0 1.397-4.791l-3.793-29.742a5.89 5.89 0 0 0-5.889-5.19H40.63a6.088 6.088 0 0 0-5.888 7.386l7.286 29.742a5.889 5.889 0 0 0 5.789 4.591h33.435a5.89 5.89 0 0 0 4.49-1.996zm-33.235-9.98-4.292-17.865h23.953l2.296 17.865H52.507z" fill="#000000" opacity="1" data-original="#000000" class="">
		</path>
		<path d="M508.117 77.644c-6.986-12.376-19.362-12.176-25.949-8.982l-.699.299-59.584 37.826c6.288-22.756 8.483-43.216 6.288-59.783-2.795-21.758-13.074-37.028-28.943-42.916-15.869-5.889-33.634-.998-50.002 13.773-16.368 14.771-31.339 39.523-43.415 71.46-5.09-9.681-20.859-39.822-20.859-40.122V26.045a5.988 5.988 0 0 0-5.988-5.988H158.4a5.988 5.988 0 0 0-5.988 5.988v21.658l-4.99 9.282a61.174 61.174 0 0 0-5.689-19.861 60.38 60.38 0 0 0-28.045-29.143c-12.176-5.689-24.951-6.188-36.03-1.198-16.651-11.778-39.696-7.827-51.473 8.824a36.93 36.93 0 0 0-6.713 19.121C.708 47.602-4.981 75.747 6.696 100.599a62.787 62.787 0 0 0 13.274 18.664c-8.982 12.975-11.078 31.139-5.389 48.306a20.653 20.653 0 0 0-9.481 6.787 20.859 20.859 0 0 0-3.892 17.865l45.411 187.933a20.96 20.96 0 0 0 20.36 16.069h.1l286.74-1.697-1.198 7.286a7.185 7.185 0 0 1-6.986 5.988H102.409c-11.553.055-20.904 9.406-20.959 20.959a20.46 20.46 0 0 0 5.789 14.272c-17.633 10.573-23.356 33.439-12.782 51.072s33.439 23.356 51.072 12.782 23.356-33.439 12.782-51.072a37.258 37.258 0 0 0-4.563-6.095h175.058c-13.862 15.11-12.85 38.596 2.259 52.458 15.11 13.862 38.596 12.85 52.458-2.259 13.862-15.11 12.85-38.596-2.259-52.458a29.095 29.095 0 0 0-.26-.236 48.904 48.904 0 0 0 33.035-38.724l42.417-263.086 68.067-42.617c4.592-2.896 11.179-11.878 3.594-25.152zM322.08 81.037c21.059-49.104 48.904-74.654 72.958-65.772 24.053 8.883 28.844 48.405 11.378 101.402l-6.388 3.992a6.684 6.684 0 0 0-2.695 4.092l-6.787 42.317h-11.478a49.697 49.697 0 0 0 2.196-14.871 53.801 53.801 0 0 0-3.493-19.063 56.574 56.574 0 0 0-9.781-16.368l-2.595-2.994a27.054 27.054 0 0 1 12.376 1.397l4.092-11.378c-8.583-3.094-18.165-2.994-27.945.399a74.028 74.028 0 0 0-21.458-9.481l11.178-15.47-9.681-7.086-14.671 20.161h-1.697a147.473 147.473 0 0 1 4.491-11.277zm-198.013 77.449-3.593-7.485 3.593-2.196v9.681zm120.565 6.188c.119.709.286 1.409.499 2.096l-109.087-.2v-3.094l54.194-24.153 13.074-5.789 41.319-18.364v24.153a44.1 44.1 0 0 0-1.497 10.28 20.182 20.182 0 0 0-.1 2.495 48.304 48.304 0 0 0 1.598 12.576zm13.174 2.096a25.237 25.237 0 0 1-1.198-3.593 39.632 39.632 0 0 1 0-22.257c.194-.962.495-1.9.898-2.795a45.71 45.71 0 0 1 12.476-18.464l1.896 19.063a5.887 5.887 0 0 0 3.393 4.89 6.089 6.089 0 0 0 5.988-.499l16.468-11.677 3.593 7.386 5.489 11.178a5.986 5.986 0 0 0 5.389 3.393h.1l.998-.2a5.788 5.788 0 0 0 4.391-3.493l7.585-17.665 10.979 10.08a6.088 6.088 0 0 0 6.188 1.098 5.89 5.89 0 0 0 3.793-4.89l1.397-12.775 12.775.798a42.022 42.022 0 0 1 8.883 25.75 40.111 40.111 0 0 1-2.795 14.871l-108.686-.199zm52.996-62.778-4.791 6.587 9.681 7.086 9.082-12.476a61.46 61.46 0 0 1 21.558 8.384l-3.693-.299a5.989 5.989 0 0 0-6.288 5.389l-.699 6.587-8.483-7.685a6.087 6.087 0 0 0-9.581 2.096l-5.789 13.374-6.388-13.174a5.887 5.887 0 0 0-3.892-3.194h-.2a2.993 2.993 0 0 0-1.297-.2 6.088 6.088 0 0 0-3.493 1.098l-13.773 9.781-1.497-15.669a59.387 59.387 0 0 1 18.664-6.587 65.88 65.88 0 0 1 10.879-1.098zm-31.838-39.223 15.769 29.143a73.855 73.855 0 0 0-30.041 14.472 61.17 61.17 0 0 0-8.084 7.984v-1.896a33.63 33.63 0 0 1 4.292-16.368h.1l17.964-33.335zM164.388 32.033h108.588v11.178H164.388V32.033zm-11.477 40.221 5.689-10.679 2.695-5.19.699-1.198h108.588s-22.955 42.916-23.953 46.01l-4.591 1.996-43.914 19.562-12.875 5.689-49.204 21.857v-37.926c0-4.092 2.395-11.577 3.493-14.671l.499-1.397 12.874-24.053zM17.475 95.509c-9.581-20.46-4.791-43.415 10.879-52.298a5.988 5.988 0 0 0 3.094-5.29v-.499a4.237 4.237 0 0 0-.1-.499c0-13.78 11.171-24.951 24.951-24.951a24.554 24.554 0 0 1 16.568 6.388 6.188 6.188 0 0 0 7.086.699l1.996-1.098c8.084-3.793 17.466-3.493 26.548.898s17.466 12.775 22.456 23.354a51.2 51.2 0 0 1 4.89 22.756 6.09 6.09 0 0 0 1.796 4.491 4.894 4.894 0 0 0 2.395 1.397l-10.18 19.163a46.106 46.106 0 0 0-5.789 22.356v21.757a94.69 94.69 0 0 1-8.683 5.988L99.116 105.39c19.761-12.575 28.644-35.73 19.761-54.593l-10.879 5.09c6.088 12.975-.2 29.043-14.073 38.525l-12.076-25.85-10.879 5.09 12.276 26.049a38.924 38.924 0 0 1-22.556 1.098c-8.284-2.196-14.671-7.286-17.965-14.172l-10.779 5.09c4.791 10.18 13.873 17.466 25.65 20.66a51.52 51.52 0 0 0 12.476 1.597 53.206 53.206 0 0 0 18.264-3.393l16.268 34.632c-21.258 7.984-43.016 4.292-49.304-9.082l-10.879 5.09c4.89 10.48 15.27 17.366 29.043 19.562 3.042.435 6.109.668 9.182.699a75.481 75.481 0 0 0 27.047-5.389l4.89 10.48-87.729-.2c-6.188-16.069-4.092-33.335 5.789-43.715a6.186 6.186 0 0 0 1.597-4.491 5.986 5.986 0 0 0-2.296-4.292 51.839 51.839 0 0 1-14.469-18.366zm88.926 404.51c-13.89-.055-25.106-11.36-25.051-25.25s11.36-25.106 25.25-25.051c13.851.055 25.051 11.299 25.051 25.15 0 13.89-11.26 25.151-25.151 25.151h-.099zm254.903-25.151c.055 13.945-11.205 25.295-25.151 25.35-13.945.055-25.295-11.205-25.35-25.151-.055-13.945 11.205-25.295 25.151-25.35h.199c13.89 0 25.151 11.26 25.151 25.151zM498.037 92.814l-70.163 43.814a6.189 6.189 0 0 0-2.795 4.192l-42.916 265.781c-2.85 17.957-18.347 31.167-36.529 31.139H102.409a8.982 8.982 0 0 1 0-17.964h243.225c9.364.011 17.334-6.814 18.763-16.069l2.296-14.272a5.892 5.892 0 0 0-1.297-4.791 5.693 5.693 0 0 0-4.591-2.096l-293.826 1.697a8.983 8.983 0 0 1-8.683-6.887L12.884 189.425a8.88 8.88 0 0 1 1.597-7.685 8.98 8.98 0 0 1 7.086-3.393l374.069.699a6.089 6.089 0 0 0 5.889-5.09l7.186-44.613 78.846-50.002c2.096-.898 6.787-1.796 10.18 4.192 3.394 6.087 1.098 8.583.3 9.281z" fill="#000000" opacity="1" data-original="#000000" class="">
		</path>
		<path d="M316.292 315.679h-25.55a5.988 5.988 0 0 0-5.988 5.589l-2.395 37.327a5.687 5.687 0 0 0 1.597 4.491 5.985 5.985 0 0 0 4.391 1.896h23.155a6.088 6.088 0 0 0 5.888-5.29l4.791-37.127a5.987 5.987 0 0 0-5.888-6.786l-.001-.1zm-10.081 37.227h-11.478l1.597-25.35h13.074l-3.193 25.35zM204.011 315.679h-25.45a5.99 5.99 0 0 0-4.391 1.896 6.087 6.087 0 0 0-1.597 4.491l2.395 37.926a5.988 5.988 0 0 0 5.988 5.589h23.454a6.191 6.191 0 0 0 4.292-1.796 6.09 6.09 0 0 0 1.697-4.292L210 321.767a5.988 5.988 0 0 0-5.888-6.087l-.101-.001zm-17.366 37.926-1.697-25.949h13.174l.2 25.849-11.677.1zM260.7 315.679h-26.748a6.39 6.39 0 0 0-4.292 1.796 6.09 6.09 0 0 0-1.697 4.292l.399 37.627a5.889 5.889 0 0 0 5.888 5.889l.101-.001h23.953a5.988 5.988 0 0 0 5.988-5.589l2.395-37.527a5.988 5.988 0 0 0-5.989-6.387v-.1zm-8.084 37.527H240.24l-.2-25.65h14.272l-1.696 25.65zM323.977 256.095h-29.443a5.988 5.988 0 0 0-5.988 5.589l-1.896 29.642a5.988 5.988 0 0 0 5.989 6.387h27.446a5.988 5.988 0 0 0 5.988-5.19l3.793-29.642a6.291 6.291 0 0 0-1.397-4.791 6.095 6.095 0 0 0-4.492-1.995zm-9.083 29.642h-15.869l1.098-17.666h16.967l-2.196 17.666zM264.493 256.095h-31.139a5.791 5.791 0 0 0-4.292 1.796 5.693 5.693 0 0 0-1.697 4.292l.299 29.642a5.889 5.889 0 0 0 5.888 5.889l.101-.001h28.943a5.888 5.888 0 0 0 5.988-5.589l1.896-29.642a5.687 5.687 0 0 0-1.597-4.491 5.989 5.989 0 0 0-4.39-1.896zm-7.486 29.642h-17.466l-.2-17.666h18.763l-1.097 17.666zM268.385 196.711h-35.73a6.188 6.188 0 0 0-5.988 5.988l.299 29.542a6.087 6.087 0 0 0 5.988 5.888h33.535a6.088 6.088 0 0 0 5.988-5.589l1.896-29.442a6.387 6.387 0 0 0-1.597-4.491 6.289 6.289 0 0 0-4.391-1.896zm-7.485 29.443h-21.957l-.2-17.466h23.255l-1.098 17.466zM371.584 315.679h-25.151a5.99 5.99 0 0 0-5.889 5.29l-4.791 36.928a5.99 5.99 0 0 0 1.397 4.691 6.187 6.187 0 0 0 4.491 2.096h.1l23.953-.2a5.988 5.988 0 0 0 5.888-4.99l5.988-36.828a6.588 6.588 0 0 0-1.397-4.89 6.077 6.077 0 0 0-4.589-2.097zm-10.979 36.928h-12.076l3.194-24.951h12.875l-3.993 24.951zM146.623 297.714a6.286 6.286 0 0 0 4.391-1.896 6.087 6.087 0 0 0 1.597-4.491l-1.896-29.642a6.088 6.088 0 0 0-5.988-5.589h-29.442a5.888 5.888 0 0 0-5.888 6.787l3.793 29.642a5.89 5.89 0 0 0 5.889 5.19h27.544zm-7.585-29.642 1.198 17.666h-15.869l-2.296-17.666h16.967zM203.711 297.714a6.188 6.188 0 0 0 5.988-5.988l-.299-29.742a6.087 6.087 0 0 0-5.988-5.888h-28.744a5.89 5.89 0 0 0-4.292 1.896 5.79 5.79 0 0 0-1.697 4.491l1.996 29.642a5.889 5.889 0 0 0 5.888 5.589h27.148zm-6.287-29.642.2 17.666h-15.37l-1.198-17.666h16.368zM154.508 321.268a5.988 5.988 0 0 0-5.988-5.589h-25.55a5.984 5.984 0 0 0-4.491 2.096 5.79 5.79 0 0 0-1.397 4.691l4.89 38.225a5.99 5.99 0 0 0 5.988 5.29l23.055-.2a5.99 5.99 0 0 0 5.989-6.388l-2.496-38.125zm-21.359 32.636-3.393-26.249h13.174l1.697 26.249h-11.478zM203.013 238.13a5.791 5.791 0 0 0 4.292-1.796 5.693 5.693 0 0 0 1.697-4.292l-.299-29.442a5.988 5.988 0 0 0-5.988-5.988h-31.838a5.587 5.587 0 0 0-4.391 1.896 6.087 6.087 0 0 0-1.597 4.491l1.896 29.542a5.988 5.988 0 0 0 5.988 5.589h30.24zm-6.188-29.542.2 17.566h-18.664l-1.098-17.566h19.562zM336.053 198.907a5.89 5.89 0 0 0-4.491-1.996h-33.235a5.987 5.987 0 0 0-5.888 5.589l-1.896 29.343a5.385 5.385 0 0 0 1.597 4.491 5.888 5.888 0 0 0 4.292 1.896h31.339a5.988 5.988 0 0 0 5.988-5.19l3.793-29.343a5.797 5.797 0 0 0-1.499-4.79zm-13.474 27.247h-19.761l1.198-17.366h20.759l-2.196 17.366zM396.335 71.556l4.192-11.178c-16.069-5.988-35.331-.2-52.997 15.869l8.084 8.883c14.173-12.975 29.044-17.866 40.721-13.574z" fill="#000000" opacity="1" data-original="#000000" class="">
		</path>
	</g>
</svg>
